# xmcd CD database file
#
# Track frame offsets:
#	150
#	9573
#	18755
#	28406
#	39169
#	49092
#	58815
#	68201
#	78576
#	90801
#	104547
#	114950
#	126175
#	137333
#	148177
#	159452
#	169044
#	180119
#	190128
#	202049
#	214232
#	225041
#	235065
#	247675
#	259159
#	269434
#	279861
#	293275
#	303533
#	315808
#
# Disc length: 4388 seconds
#
# Revision: 0
# Processed by: cddbd v1.5.2PL0 Copyright (c) Steve Scherf et al.
# Submitted via: CDex 1.70beta2
#
DISCID=8311221e
DTITLE=Norma Jean - Heaven Help The Working Girl
DYEAR=1900
DGENRE=Country
TTITLE0=Heaven Help The Working Girl
TTITLE1=I Wouldn't Buy A Used Car From Him
TTITLE2=Don't Put Your Hands On Me
TTITLE3=The Future Ex-Mrs. Jones
TTITLE4=Your Alibi Called Today
TTITLE5=What Locks The Door
TTITLE6=Pick Me Up On Your Way Down
TTITLE7=Welcome Home To Nothing
TTITLE8=Same Old Story Same Old Lie
TTITLE9=The Shirt
TTITLE10=I Cried All The Way To The Bank
TTITLE11=Jackson Ain't A Very Big Town
TTITLE12=One Man Band
TTITLE13=Then Go Home To Her
TTITLE14=Persuing Happiness
TTITLE15=Don't Let That Doorknob Hit You
TTITLE16=You're Driving Me Out Of My Mind
TTITLE17=Put Your Arms Around Her
TTITLE18=Conscience Keep An Eye On Me
TTITLE19=Dusty Road
TTITLE20=Truck Drivin' Woman
TTITLE21=Go Cat Go
TTITLE22=Let's Go All The Way
TTITLE23=I'm A Walking Advertisement (For The Blues)
TTITLE24=You Changed Everything About Me But My Name
TTITLE25=The Kind Of Needin' I Need
TTITLE26=Teddy Bear Song
TTITLE27=Whiskey Six Years Old
TTITLE28=The Game Of Triangles
TTITLE29=Satisfied Mind
EXTD=
EXTT0=
EXTT1=
EXTT2=
EXTT3=
EXTT4=
EXTT5=
EXTT6=
EXTT7=
EXTT8=
EXTT9=
EXTT10=
EXTT11=
EXTT12=
EXTT13=
EXTT14=
EXTT15=
EXTT16=
EXTT17=
EXTT18=
EXTT19=
EXTT20=
EXTT21=
EXTT22=
EXTT23=
EXTT24=
EXTT25=
EXTT26=
EXTT27=
EXTT28=
EXTT29=
PLAYORDER=
